<?xml version="1.0" encoding="UTF-8"?><svg xmlns="http://www.w3.org/2000/svg" xmlns:xlink="http://www.w3.org/1999/xlink" height="98.3" preserveAspectRatio="xMidYMid meet" version="1.0" viewBox="0.0 -0.0 78.8 98.3" width="78.8" zoomAndPan="magnify"><defs><clipPath id="a"><path d="M 0 30 L 78.851562 30 L 78.851562 98.308594 L 0 98.308594 Z M 0 30"/></clipPath><clipPath id="b"><path d="M 0 1 L 78.851562 1 L 78.851562 98.308594 L 0 98.308594 Z M 0 1"/></clipPath></defs><g><g clip-path="url(#a)" id="change1_1"><path d="M 51.199219 69.523438 L 9.433594 56.828125 L 8.105469 86.140625 L 4.980469 87.957031 L 1.609375 86.519531 L 3.429688 54.328125 L 0 53.097656 L 0.121094 46.269531 L 23.058594 30.003906 L 78.847656 45.488281 L 76.667969 86.664062 L 73.722656 88.527344 L 70.785156 87.410156 L 72.359375 57.726562 L 57.941406 67.511719 L 57.304688 96.929688 L 53.628906 98.308594 L 50.851562 96.734375 L 51.199219 69.523438" fill="#d79848" fill-rule="evenodd"/></g><g id="change2_2"><path d="M 41.207031 47.34375 C 41.207031 47.347656 41.011719 47.199219 40.988281 47.132812 C 40.921875 46.9375 40.914062 46.714844 40.917969 46.511719 C 40.941406 45.917969 41.140625 45.335938 41.398438 44.804688 C 42.132812 43.273438 43.417969 41.859375 45.050781 41.277344 C 46.125 40.894531 47.789062 40.503906 48.894531 40.972656 C 50.933594 41.839844 51.007812 44.417969 49.59375 45.757812" fill="#141211" fill-rule="evenodd"/></g><g id="change3_1"><path d="M 27.136719 35.429688 L 44.402344 40.148438 L 37.734375 46.214844 L 19.078125 41.820312 L 27.136719 35.429688" fill="#b7ab9b" fill-rule="evenodd"/></g><g id="change2_3"><path d="M 45.308594 28.566406 C 46.105469 28.753906 46.910156 28.886719 47.722656 28.972656 C 48.523438 29.054688 49.339844 29.09375 50.144531 29.097656 C 50.378906 29.097656 51.011719 28.960938 51.226562 29.097656 C 51.292969 29.140625 50.714844 31.003906 50.6875 31.128906 C 50.394531 32.492188 50.238281 33.933594 50.652344 35.289062 C 51.023438 36.5 51.710938 37.628906 52.230469 38.777344 C 52.382812 39.113281 52.53125 39.449219 52.691406 39.785156 C 52.773438 39.957031 53.152344 40.175781 52.988281 40.273438 C 52.519531 40.554688 50.566406 39.925781 50.128906 39.84375 C 47.414062 39.328125 44.691406 38.867188 41.96875 38.402344 C 41.085938 38.25 40.203125 38.097656 39.320312 37.9375 C 39.230469 37.917969 38.628906 37.882812 38.582031 37.75 C 38.566406 37.695312 39.40625 37.367188 39.464844 37.335938 C 40.003906 37.054688 40.484375 36.671875 40.894531 36.222656 C 42.027344 34.972656 42.519531 33.234375 42.847656 31.617188 C 43.035156 30.703125 43.179688 29.773438 43.285156 28.847656 C 43.320312 28.554688 43.347656 28.261719 43.378906 27.96875 C 43.394531 27.804688 43.621094 27.433594 43.464844 27.480469" fill="#141211" fill-rule="evenodd"/></g><g id="change3_2"><path d="M 27.90625 26.347656 L 28.371094 -0.00390625 L 70.59375 2.535156 L 69.027344 32.425781 L 27.90625 26.347656" fill="#b7ab9b" fill-rule="evenodd"/></g><g id="change2_4"><path d="M 32.28125 21.867188 C 32.351562 21.867188 32.414062 21.910156 32.472656 21.976562 C 32.542969 22.058594 32.601562 22.179688 32.652344 22.328125 C 32.746094 22.597656 32.796875 22.953125 32.792969 23.34375 C 32.789062 23.734375 32.730469 24.089844 32.632812 24.355469 C 32.582031 24.5 32.519531 24.613281 32.449219 24.695312 C 32.398438 24.753906 32.34375 24.789062 32.28125 24.789062 C 32.222656 24.789062 32.167969 24.753906 32.113281 24.695312 C 32.042969 24.613281 31.984375 24.5 31.933594 24.355469 C 31.835938 24.089844 31.773438 23.734375 31.773438 23.34375 C 31.769531 22.953125 31.820312 22.597656 31.914062 22.328125 C 31.964844 22.179688 32.027344 22.0625 32.097656 21.980469 C 32.152344 21.914062 32.214844 21.871094 32.28125 21.871094 Z M 32.28125 21.726562 C 32.175781 21.726562 32.078125 21.78125 31.984375 21.882812 C 31.902344 21.972656 31.828125 22.105469 31.765625 22.273438 C 31.660156 22.554688 31.59375 22.933594 31.589844 23.34375 C 31.589844 23.851562 31.679688 24.300781 31.820312 24.597656 C 31.941406 24.851562 32.109375 24.988281 32.28125 24.988281 C 32.453125 24.988281 32.621094 24.851562 32.746094 24.59375 C 32.886719 24.300781 32.976562 23.851562 32.972656 23.34375 C 32.964844 22.933594 32.902344 22.558594 32.796875 22.277344 C 32.734375 22.109375 32.660156 21.976562 32.578125 21.882812 C 32.484375 21.785156 32.386719 21.730469 32.28125 21.734375 L 32.28125 21.726562" fill="#141211" fill-rule="evenodd"/></g><g id="change4_1"><path d="M 51.679688 43.824219 C 50.777344 42.433594 50.21875 41.589844 48.316406 41.773438 C 47.496094 41.855469 46.902344 42.601562 46.117188 42.648438 C 45.414062 42.6875 43.019531 42.546875 42.636719 43.445312 C 42.09375 44.714844 43.71875 47.15625 43.792969 47.234375 C 44.542969 48.035156 44.945312 49.054688 45.167969 50.117188 C 45.230469 50.398438 45.132812 51.371094 45.285156 51.59375 C 45.449219 51.828125 45.757812 51.265625 45.996094 51.109375 C 46.460938 50.808594 46.929688 50.519531 47.398438 50.230469 C 48.871094 49.332031 52.699219 47.457031 52.574219 45.28125 C 52.539062 44.636719 52.003906 44.324219 51.679688 43.824219 Z M 32.070312 26.230469 C 31.699219 26.9375 31.976562 28.554688 31.621094 29.191406 C 31.398438 29.601562 30.351562 29.851562 29.476562 29.894531 C 29.457031 30.019531 29.421875 30.136719 29.398438 30.226562 C 29.238281 30.890625 29.035156 31.546875 28.863281 32.207031 C 28.703125 32.820312 28.722656 34.050781 28.320312 34.5625 C 28.046875 34.902344 27.394531 35 27 35.058594 C 25.5625 35.277344 24.003906 35.007812 22.777344 34.214844 L 21.597656 34.707031 C 21.535156 34.753906 21.714844 34.597656 21.753906 34.53125 C 21.824219 34.402344 21.886719 34.269531 21.941406 34.136719 C 22.117188 33.710938 22.257812 33.269531 22.375 32.820312 C 22.59375 31.980469 22.726562 31.113281 22.734375 30.242188 C 22.738281 29.820312 22.574219 29.257812 22.648438 28.847656 C 22.660156 28.769531 22.785156 28.941406 22.863281 28.972656 C 22.988281 29.03125 23.121094 29.0625 23.257812 29.085938 C 23.667969 29.160156 24.082031 29.109375 24.484375 29.027344 C 25.191406 28.886719 25.878906 28.65625 26.53125 28.351562 C 26.5625 28.335938 26.605469 28.308594 26.660156 28.273438 C 26.21875 27.703125 25.867188 27.070312 25.609375 26.398438 C 25.210938 25.359375 24.867188 23.929688 25.292969 22.847656 C 25.710938 21.789062 26.546875 22.640625 26.953125 23.210938 C 27.007812 23.285156 27.636719 24.183594 27.648438 24.121094 L 29.363281 19.910156 C 31.304688 19.238281 31.910156 20.867188 31.984375 22.371094 C 32.003906 22.808594 31.683594 24.113281 32.078125 24.332031 C 32.695312 24.675781 32.5 25.410156 32.070312 26.230469" fill="#c7661d" fill-rule="evenodd"/></g><g id="change2_5"><path d="M 46.335938 86.910156 C 44.972656 86.003906 43.972656 85.070312 43.972656 83.308594 C 43.972656 77.402344 47.296875 70.992188 43.9375 65.355469 C 41.902344 61.949219 37.722656 62.421875 34.070312 62.785156 C 33.96875 60.871094 33.652344 59.070312 33.882812 59.171875 C 34.699219 59.527344 40.894531 56.019531 43.597656 53.78125 C 44.132812 53.335938 45.796875 52.496094 46.027344 51.78125 C 46.410156 50.585938 45.671875 48.585938 45.089844 47.5625 C 43.585938 44.90625 39.730469 49.398438 37.679688 47.207031 C 36.050781 45.46875 35.78125 42.78125 34.289062 40.894531 C 33.078125 39.359375 30.582031 38.511719 29.671875 36.859375 C 29.0625 35.757812 29.089844 32.542969 28.648438 32.316406 C 27.410156 31.683594 22.175781 30.957031 21.058594 31.484375 C 20.550781 31.722656 20.164062 33.511719 19.976562 33.992188 C 19.867188 34.265625 14.695312 36.949219 13.464844 38.765625 C 9.332031 44.878906 12.105469 62.726562 14.074219 66.679688 L 13.1875 66.910156 C 15.257812 71.277344 20.382812 72.695312 23.988281 71.984375 C 27.921875 71.207031 30.390625 68.152344 33.640625 70.078125 C 34.453125 70.558594 34.808594 71.460938 34.988281 72.417969 C 34.460938 72.546875 33.925781 72.769531 33.585938 72.875 L 27.09375 76.433594 C 27.121094 76.511719 27.140625 77.003906 27.144531 77.050781 C 27.148438 77.601562 27.128906 78.152344 27.109375 78.699219 C 27.039062 80.410156 26.90625 82.113281 26.71875 83.816406 C 26.617188 84.730469 26.515625 85.644531 26.414062 86.5625 C 26.039062 89.945312 26.699219 90.566406 30.070312 90.394531 C 30.863281 90.351562 31.667969 90.277344 32.453125 90.144531 C 32.984375 90.054688 34.714844 89.769531 35.546875 89.324219 C 35.449219 90.28125 35.398438 91.070312 35.496094 91.144531 C 35.964844 91.488281 37.304688 91.292969 37.84375 91.292969 C 40.328125 91.292969 42.882812 90.609375 45.234375 89.867188 C 45.90625 89.660156 47.703125 89.4375 47.96875 88.609375 C 48.226562 87.8125 46.820312 87.234375 46.335938 86.910156 Z M 19.011719 23.035156 C 18.65625 20.878906 20.734375 18.855469 20.734375 18.855469 C 20.734375 18.855469 25.351562 13.09375 29.636719 16.695312 C 30.605469 17.511719 32.695312 18.367188 33.042969 19.558594 C 33.050781 19.578125 32.011719 21.527344 31.449219 21.832031 C 30.332031 22.4375 28.390625 22.554688 28.1875 23.070312 C 28.085938 23.335938 27.671875 24.175781 27.640625 24.460938 C 27.640625 24.484375 26.203125 22.269531 25.65625 23.023438 C 25.453125 23.308594 25.164062 24.480469 25.542969 25.328125 C 25.988281 26.324219 27.523438 27.460938 27.523438 27.460938 C 27.523438 27.460938 27.265625 29.417969 27.0625 29.613281 C 26.707031 29.953125 25.457031 29.867188 24.980469 30.011719 C 24.8125 30.0625 23.269531 30.851562 21.742188 29.464844 C 19.929688 27.816406 19.226562 24.351562 19.011719 23.035156" fill="#141211" fill-rule="evenodd"/></g><g id="change3_3"><path d="M 35.25 72.808594 C 35.214844 74.113281 34.738281 75.378906 33.578125 76.003906 C 30.070312 77.886719 22.058594 78.4375 22.058594 78.4375 C 22.058594 78.4375 20.019531 84.652344 20.8125 87.675781 C 21.304688 89.546875 25.199219 86.609375 25.621094 88.226562 C 26.25 90.621094 21.707031 89.414062 22.003906 90.015625 C 22.992188 92.019531 25.558594 92.835938 27.347656 93.824219 C 27.816406 94.082031 29.789062 94.453125 29.722656 95.132812 C 29.589844 96.464844 26.34375 97.183594 25.359375 97.101562 C 22.289062 96.855469 20.617188 92.101562 17.332031 92.449219 C 14.359375 92.765625 13.632812 93.640625 10.816406 94.546875 C 9.769531 94.882812 8.15625 95.441406 7.070312 94.949219 C 5.894531 94.414062 8.679688 92.953125 9.023438 92.746094 C 11.875 91.050781 14.1875 91.589844 15.960938 88.621094 C 17.277344 86.414062 17.214844 78.769531 17.152344 78.316406 C 14.550781 78.367188 9.097656 77.84375 6.757812 76.867188 C 6.105469 76.597656 4.800781 70.070312 8.394531 69.050781 C 8.796875 68.9375 11.527344 69.09375 11.527344 69.09375 C 11.527344 69.09375 11.789062 60.84375 11.789062 60.777344 C 8.316406 60.332031 5.363281 59.609375 4.847656 58.601562 C 3.5 55.964844 3.339844 46.691406 6.808594 44.613281 C 8.289062 43.726562 11.53125 43.503906 14.933594 43.699219 C 19.496094 43.964844 24.355469 44.976562 25.65625 46.136719 C 28.527344 48.6875 26.261719 59.410156 24.574219 60.925781 C 24.132812 61.320312 20.917969 61.4375 17.203125 61.25 C 16.902344 64.082031 16.871094 66.945312 16.945312 69.789062 C 16.945312 69.859375 16.949219 69.929688 16.953125 69.996094 C 16.953125 69.996094 19.710938 70.976562 21.144531 70.964844 C 24.085938 70.9375 33.578125 67.945312 34.59375 69.835938 C 35.015625 70.625 35.28125 71.726562 35.25 72.808594" fill="#b7ab9b" fill-rule="evenodd"/></g><g clip-path="url(#b)" id="change2_1"><path d="M 5.753906 59.695312 C 5.753906 59.695312 5.609375 63.378906 5.433594 68.070312 C 5.367188 69.839844 5.300781 71.746094 5.230469 73.65625 C 5.164062 75.566406 5.101562 77.476562 5.042969 79.246094 C 4.886719 83.9375 4.773438 87.625 4.773438 87.625 C 4.769531 87.664062 4.800781 87.695312 4.839844 87.699219 C 4.878906 87.699219 4.914062 87.667969 4.914062 87.628906 C 4.914062 87.628906 5.054688 83.945312 5.230469 79.25 C 5.292969 77.484375 5.363281 75.574219 5.433594 73.664062 C 5.5 71.753906 5.5625 69.847656 5.617188 68.078125 C 5.773438 63.386719 5.886719 59.699219 5.886719 59.699219 C 5.886719 59.660156 5.859375 59.632812 5.820312 59.628906 C 5.785156 59.628906 5.753906 59.65625 5.753906 59.695312 Z M 75.558594 55.429688 C 75.558594 55.429688 75.285156 59.773438 74.949219 65.300781 C 74.824219 67.382812 74.6875 69.632812 74.554688 71.886719 C 74.421875 74.136719 74.292969 76.386719 74.171875 78.46875 C 73.855469 84 73.613281 88.34375 73.613281 88.34375 C 73.609375 88.382812 73.640625 88.417969 73.679688 88.417969 C 73.71875 88.421875 73.753906 88.390625 73.753906 88.351562 C 73.753906 88.351562 74.023438 84.007812 74.359375 78.480469 C 74.484375 76.398438 74.621094 74.148438 74.753906 71.894531 C 74.886719 69.644531 75.015625 67.394531 75.132812 65.3125 C 75.449219 59.78125 75.691406 55.4375 75.691406 55.4375 C 75.691406 55.402344 75.664062 55.367188 75.628906 55.367188 C 75.589844 55.363281 75.558594 55.394531 75.558594 55.429688 Z M 78.457031 52.753906 C 78.457031 52.753906 77.605469 53.421875 76.527344 54.277344 C 76.121094 54.597656 75.683594 54.945312 75.246094 55.296875 C 74.808594 55.648438 74.375 56.003906 73.972656 56.332031 C 72.90625 57.203125 72.074219 57.890625 72.074219 57.890625 C 72.046875 57.914062 72.039062 57.957031 72.0625 57.984375 C 72.085938 58.015625 72.128906 58.019531 72.15625 57.996094 C 72.15625 57.996094 73.011719 57.328125 74.089844 56.476562 C 74.496094 56.152344 74.933594 55.804688 75.371094 55.453125 C 75.808594 55.101562 76.242188 54.75 76.644531 54.421875 C 77.710938 53.550781 78.546875 52.863281 78.546875 52.863281 C 78.578125 52.839844 78.582031 52.792969 78.558594 52.761719 C 78.53125 52.734375 78.488281 52.726562 78.457031 52.753906 Z M 55.609375 68.8125 C 55.238281 69.027344 54.890625 69.234375 54.605469 69.398438 C 54.285156 69.589844 54.050781 69.726562 53.972656 69.777344 C 53.835938 69.75 53.335938 69.65625 52.78125 69.558594 C 51.925781 69.402344 50.9375 69.222656 50.9375 69.222656 C 50.898438 69.21875 50.863281 69.242188 50.859375 69.277344 C 50.851562 69.3125 50.875 69.347656 50.910156 69.355469 C 50.910156 69.355469 51.894531 69.558594 52.746094 69.730469 C 53.398438 69.859375 53.972656 69.972656 53.972656 69.972656 C 53.988281 69.976562 54.007812 69.972656 54.027344 69.964844 C 54.019531 70.390625 53.96875 73.925781 53.917969 78.355469 C 53.898438 80.132812 53.875 82.054688 53.855469 83.976562 C 53.835938 85.898438 53.820312 87.820312 53.808594 89.601562 C 53.769531 94.324219 53.746094 98.035156 53.746094 98.035156 C 53.746094 98.074219 53.78125 98.105469 53.816406 98.109375 C 53.859375 98.109375 53.890625 98.074219 53.890625 98.035156 C 53.890625 98.035156 53.9375 94.328125 53.992188 89.601562 C 54.015625 87.824219 54.035156 85.902344 54.054688 83.980469 C 54.074219 82.058594 54.089844 80.136719 54.101562 78.355469 C 54.136719 73.632812 54.160156 69.921875 54.160156 69.921875 C 54.160156 69.910156 54.144531 69.910156 54.140625 69.902344 C 54.25 69.839844 54.449219 69.726562 54.707031 69.570312 C 54.992188 69.40625 55.339844 69.199219 55.707031 68.980469 C 56.863281 68.289062 58.195312 67.488281 58.195312 67.488281 C 58.230469 67.46875 58.242188 67.421875 58.222656 67.390625 C 58.203125 67.355469 58.160156 67.34375 58.125 67.363281 C 58.125 67.363281 56.773438 68.136719 55.609375 68.8125 Z M 36.78125 44.851562 C 37.1875 44.976562 37.492188 45.070312 37.683594 45.128906 C 37.996094 44.878906 38.308594 44.628906 38.609375 44.363281 C 38.667969 44.3125 38.726562 44.257812 38.785156 44.203125 C 38.597656 44.152344 38.253906 44.050781 37.78125 43.914062 C 37.265625 44.398438 36.878906 44.757812 36.78125 44.851562 Z M 37.714844 43.734375 C 37.847656 43.605469 37.984375 43.46875 38.132812 43.328125 C 38.304688 43.160156 38.492188 42.976562 38.675781 42.800781 C 38.261719 42.679688 37.78125 42.542969 37.261719 42.390625 C 37.179688 42.464844 37.089844 42.546875 37.011719 42.617188 C 36.730469 42.878906 36.484375 43.101562 36.269531 43.296875 C 36.816406 43.460938 37.304688 43.609375 37.714844 43.734375 Z M 36.089844 43.242188 C 36.308594 43.03125 36.578125 42.777344 36.886719 42.484375 C 36.9375 42.433594 36.996094 42.378906 37.050781 42.328125 C 36.878906 42.277344 36.710938 42.230469 36.53125 42.175781 C 36.335938 42.121094 36.125 42.058594 35.921875 41.996094 C 35.609375 42.296875 35.296875 42.597656 34.992188 42.910156 C 35.074219 42.933594 35.160156 42.957031 35.238281 42.984375 C 35.535156 43.070312 35.816406 43.15625 36.089844 43.242188 Z M 34.816406 41.46875 C 35.175781 41.574219 35.527344 41.679688 35.875 41.785156 C 36.101562 41.558594 36.332031 41.332031 36.5625 41.105469 C 36.203125 41 35.839844 40.890625 35.464844 40.78125 C 35.417969 40.832031 35.371094 40.882812 35.320312 40.933594 C 35.152344 41.113281 34.984375 41.289062 34.816406 41.46875 Z M 34.722656 40.355469 C 34.953125 40.421875 35.183594 40.492188 35.414062 40.5625 C 35.542969 40.417969 35.671875 40.277344 35.800781 40.136719 C 35.910156 40.015625 36.019531 39.902344 36.128906 39.78125 L 36.179688 39.726562 C 35.953125 39.660156 35.726562 39.59375 35.496094 39.527344 C 35.40625 39.5 35.3125 39.46875 35.21875 39.441406 C 35.191406 39.476562 35.164062 39.511719 35.132812 39.546875 C 35.03125 39.660156 34.929688 39.769531 34.828125 39.878906 C 34.703125 40.011719 34.578125 40.144531 34.453125 40.273438 C 34.542969 40.300781 34.632812 40.328125 34.722656 40.355469 Z M 33.21875 39.910156 C 33.574219 40.015625 33.929688 40.121094 34.292969 40.226562 C 34.425781 40.070312 34.558594 39.914062 34.691406 39.757812 C 34.789062 39.644531 34.882812 39.527344 34.980469 39.414062 C 34.992188 39.402344 35.003906 39.390625 35.011719 39.378906 C 34.65625 39.273438 34.304688 39.167969 33.953125 39.0625 C 33.90625 39.125 33.855469 39.1875 33.804688 39.246094 C 33.726562 39.339844 33.644531 39.433594 33.5625 39.527344 C 33.453125 39.65625 33.335938 39.78125 33.21875 39.910156 Z M 33.886719 38.839844 C 33.890625 38.839844 33.890625 38.839844 33.894531 38.835938 L 34.378906 38.273438 C 34.394531 38.253906 34.414062 38.214844 34.433594 38.179688 C 34.074219 38.078125 33.71875 37.972656 33.378906 37.875 C 33.351562 37.980469 33.300781 38.09375 33.222656 38.210938 C 33.175781 38.28125 33.121094 38.351562 33.0625 38.421875 C 33.027344 38.460938 32.992188 38.5 32.957031 38.539062 C 32.949219 38.546875 32.941406 38.554688 32.933594 38.5625 C 32.972656 38.574219 33.011719 38.585938 33.050781 38.597656 C 33.320312 38.675781 33.605469 38.757812 33.886719 38.839844 Z M 31.105469 38.027344 C 31.582031 38.167969 32.128906 38.328125 32.722656 38.5 C 32.769531 38.445312 32.824219 38.390625 32.871094 38.339844 C 32.921875 38.285156 32.972656 38.230469 33.019531 38.175781 C 33.125 38.058594 33.203125 37.945312 33.246094 37.835938 C 32.664062 37.671875 32.113281 37.511719 31.617188 37.367188 C 31.585938 37.433594 31.546875 37.5 31.523438 37.539062 C 31.476562 37.597656 31.433594 37.65625 31.386719 37.714844 C 31.355469 37.753906 31.324219 37.789062 31.289062 37.828125 C 31.230469 37.894531 31.167969 37.960938 31.105469 38.027344 Z M 31.617188 37.191406 C 31.613281 37.183594 31.605469 37.175781 31.617188 37.175781 C 31.617188 37.175781 31.617188 37.179688 31.617188 37.179688 C 31.617188 37.183594 31.617188 37.1875 31.617188 37.191406 Z M 34.496094 38.367188 C 34.421875 38.46875 34.347656 38.566406 34.269531 38.664062 C 34.210938 38.746094 34.148438 38.820312 34.085938 38.898438 C 34.441406 39.003906 34.796875 39.109375 35.160156 39.214844 C 35.183594 39.191406 35.207031 39.164062 35.230469 39.136719 C 35.3125 39.042969 35.394531 38.953125 35.476562 38.859375 C 35.488281 38.847656 35.652344 38.664062 35.742188 38.554688 C 35.351562 38.441406 34.957031 38.332031 34.574219 38.21875 C 34.546875 38.277344 34.519531 38.335938 34.496094 38.367188 Z M 36.058594 38.644531 C 36.003906 38.628906 35.945312 38.613281 35.890625 38.597656 C 35.816406 38.703125 35.617188 38.957031 35.609375 38.96875 C 35.53125 39.066406 35.457031 39.164062 35.375 39.261719 C 35.371094 39.265625 35.367188 39.273438 35.363281 39.277344 C 35.425781 39.296875 35.488281 39.316406 35.554688 39.332031 C 35.816406 39.410156 36.074219 39.488281 36.332031 39.566406 L 36.785156 39.085938 C 36.796875 39.078125 36.886719 38.980469 36.957031 38.898438 C 36.65625 38.8125 36.359375 38.730469 36.058594 38.644531 Z M 38.824219 39.421875 C 38.722656 39.394531 38.617188 39.363281 38.515625 39.335938 C 38.507812 39.339844 38.511719 39.351562 38.503906 39.351562 C 38.414062 39.371094 38.304688 39.476562 38.183594 39.605469 C 38.066406 39.730469 37.949219 39.878906 37.839844 40.019531 C 37.910156 40.042969 37.984375 40.066406 38.054688 40.085938 C 38.429688 40.199219 38.785156 40.308594 39.125 40.410156 C 39.5 40.070312 39.773438 39.824219 39.890625 39.71875 C 39.546875 39.625 39.195312 39.523438 38.824219 39.421875 Z M 41.476562 40.160156 C 41.0625 40.042969 40.578125 39.910156 40.042969 39.761719 C 40.015625 39.789062 39.730469 40.0625 39.308594 40.464844 C 39.835938 40.625 40.308594 40.769531 40.695312 40.886719 C 41.039062 40.566406 41.3125 40.308594 41.476562 40.160156 Z M 42.855469 40.539062 C 42.664062 40.488281 42.230469 40.367188 41.632812 40.203125 C 41.496094 40.335938 41.226562 40.601562 40.878906 40.945312 C 41.449219 41.121094 41.804688 41.226562 41.804688 41.226562 C 41.839844 41.238281 41.859375 41.273438 41.847656 41.3125 C 41.835938 41.347656 41.800781 41.367188 41.765625 41.355469 C 41.765625 41.355469 41.378906 41.246094 40.757812 41.0625 C 40.597656 41.21875 40.433594 41.378906 40.253906 41.554688 C 40.136719 41.667969 40.003906 41.792969 39.882812 41.914062 C 40.523438 42.113281 40.917969 42.230469 40.957031 42.242188 C 41.074219 42.136719 41.191406 42.03125 41.308594 41.929688 C 41.511719 41.753906 41.714844 41.574219 41.914062 41.394531 C 42.113281 41.214844 42.316406 41.035156 42.515625 40.855469 Z M 37.410156 42.25 C 37.929688 42.40625 38.398438 42.550781 38.808594 42.675781 C 38.914062 42.570312 39.015625 42.472656 39.125 42.367188 C 39.265625 42.234375 39.402344 42.105469 39.542969 41.972656 C 39.140625 41.855469 38.667969 41.71875 38.148438 41.566406 C 38.058594 41.648438 37.980469 41.726562 37.890625 41.808594 C 37.730469 41.960938 37.574219 42.105469 37.410156 42.25 Z M 36.753906 41.199219 C 36.53125 41.417969 36.300781 41.632812 36.078125 41.847656 C 36.246094 41.898438 36.421875 41.949219 36.585938 42 C 36.796875 42.066406 37 42.125 37.199219 42.1875 C 37.382812 42.011719 37.566406 41.839844 37.757812 41.664062 C 37.816406 41.609375 37.871094 41.558594 37.929688 41.503906 C 37.683594 41.433594 37.429688 41.359375 37.171875 41.28125 C 37.046875 41.246094 36.910156 41.207031 36.78125 41.167969 C 36.773438 41.179688 36.761719 41.1875 36.753906 41.199219 Z M 38.761719 40.988281 C 38.613281 41.128906 38.449219 41.28125 38.292969 41.429688 C 38.8125 41.589844 39.277344 41.730469 39.671875 41.851562 C 39.824219 41.707031 39.984375 41.554688 40.128906 41.421875 C 40.28125 41.277344 40.425781 41.140625 40.566406 41.007812 C 40.171875 40.894531 39.695312 40.757812 39.167969 40.601562 C 39.039062 40.726562 38.90625 40.851562 38.761719 40.988281 Z M 38.972656 40.546875 C 38.664062 40.457031 38.34375 40.363281 38.003906 40.261719 C 37.910156 40.234375 37.808594 40.207031 37.714844 40.179688 C 37.632812 40.289062 37.558594 40.382812 37.507812 40.433594 C 37.320312 40.632812 37.125 40.824219 36.929688 41.019531 C 37.027344 41.046875 37.128906 41.078125 37.222656 41.105469 C 37.519531 41.195312 37.804688 41.28125 38.078125 41.367188 C 38.269531 41.191406 38.460938 41.015625 38.636719 40.851562 C 38.757812 40.742188 38.863281 40.644531 38.972656 40.546875 Z M 37.101562 38.9375 C 37.03125 39.03125 36.910156 39.175781 36.902344 39.1875 C 36.796875 39.3125 36.691406 39.433594 36.585938 39.554688 C 36.566406 39.578125 36.542969 39.601562 36.523438 39.625 C 36.914062 39.742188 37.292969 39.855469 37.664062 39.96875 C 37.789062 39.8125 37.933594 39.640625 38.074219 39.503906 C 38.167969 39.40625 38.257812 39.335938 38.34375 39.285156 C 37.9375 39.171875 37.523438 39.058594 37.101562 38.9375 Z M 36.269531 39.910156 C 36.109375 40.089844 35.949219 40.269531 35.785156 40.445312 C 35.730469 40.503906 35.671875 40.5625 35.617188 40.621094 C 35.992188 40.734375 36.355469 40.84375 36.71875 40.953125 C 36.9375 40.738281 37.160156 40.523438 37.378906 40.304688 C 37.417969 40.265625 37.472656 40.203125 37.535156 40.125 C 37.15625 40.015625 36.773438 39.902344 36.382812 39.785156 C 36.34375 39.828125 36.308594 39.871094 36.269531 39.910156 Z M 40.628906 42.535156 C 40.699219 42.472656 40.769531 42.410156 40.839844 42.347656 C 40.675781 42.300781 40.289062 42.191406 39.757812 42.035156 C 39.589844 42.195312 39.433594 42.351562 39.261719 42.511719 C 39.179688 42.589844 39.105469 42.664062 39.023438 42.742188 C 39.46875 42.878906 39.832031 42.988281 40.054688 43.058594 C 40.246094 42.882812 40.4375 42.707031 40.628906 42.535156 Z M 39.933594 43.164062 C 39.691406 43.097656 39.335938 42.992188 38.894531 42.863281 C 38.679688 43.066406 38.460938 43.273438 38.261719 43.460938 C 38.140625 43.578125 38.023438 43.6875 37.90625 43.792969 C 38.402344 43.945312 38.75 44.050781 38.902344 44.097656 C 39.25 43.789062 39.59375 43.480469 39.933594 43.164062 Z M 25.359375 41.605469 C 25.324219 41.597656 25.300781 41.554688 25.3125 41.519531 C 25.324219 41.480469 25.363281 41.457031 25.402344 41.46875 C 25.402344 41.46875 27.054688 41.949219 29.160156 42.566406 C 29.953125 42.800781 30.8125 43.050781 31.664062 43.304688 C 32.523438 43.558594 33.378906 43.816406 34.167969 44.058594 C 35.132812 44.347656 35.992188 44.609375 36.652344 44.8125 C 36.65625 44.796875 36.640625 44.78125 36.652344 44.773438 C 36.652344 44.773438 37.035156 44.394531 37.585938 43.859375 C 37.164062 43.738281 36.671875 43.59375 36.117188 43.433594 C 35.855469 43.671875 35.683594 43.824219 35.683594 43.824219 C 35.65625 43.851562 35.609375 43.851562 35.582031 43.820312 C 35.554688 43.792969 35.558594 43.746094 35.585938 43.722656 C 35.585938 43.722656 35.722656 43.589844 35.941406 43.378906 C 35.699219 43.308594 35.445312 43.234375 35.1875 43.160156 C 34.394531 42.929688 33.539062 42.675781 32.683594 42.421875 C 31.828125 42.167969 30.972656 41.910156 30.179688 41.671875 C 28.082031 41.035156 26.433594 40.535156 26.433594 40.535156 C 26.394531 40.523438 26.371094 40.484375 26.386719 40.445312 C 26.394531 40.40625 26.4375 40.386719 26.472656 40.398438 C 26.472656 40.398438 28.128906 40.875 30.234375 41.492188 C 31.027344 41.726562 31.882812 41.976562 32.738281 42.230469 C 33.460938 42.445312 34.171875 42.660156 34.855469 42.867188 C 34.859375 42.859375 34.847656 42.847656 34.855469 42.84375 C 35.136719 42.535156 35.429688 42.238281 35.722656 41.941406 C 35.375 41.835938 35.023438 41.734375 34.664062 41.628906 C 34.652344 41.640625 34.640625 41.652344 34.628906 41.667969 C 34.601562 41.695312 34.554688 41.699219 34.527344 41.671875 C 34.5 41.648438 34.503906 41.613281 34.523438 41.585938 C 34.355469 41.535156 34.195312 41.488281 34.027344 41.441406 C 33.171875 41.1875 32.316406 40.925781 31.527344 40.6875 C 29.425781 40.054688 27.78125 39.550781 27.78125 39.550781 C 27.742188 39.539062 27.71875 39.5 27.730469 39.460938 C 27.742188 39.425781 27.78125 39.402344 27.820312 39.414062 C 27.820312 39.414062 29.476562 39.894531 31.582031 40.511719 C 32.371094 40.742188 33.230469 40.992188 34.085938 41.246094 C 34.277344 41.304688 34.464844 41.363281 34.65625 41.417969 C 34.859375 41.1875 35.0625 40.953125 35.269531 40.722656 C 35.066406 40.664062 34.867188 40.605469 34.664062 40.546875 C 34.128906 40.386719 33.597656 40.226562 33.078125 40.070312 C 32.988281 40.164062 32.90625 40.261719 32.816406 40.355469 C 32.789062 40.386719 32.746094 40.386719 32.714844 40.363281 C 32.6875 40.335938 32.683594 40.289062 32.710938 40.261719 C 32.777344 40.179688 32.84375 40.097656 32.910156 40.019531 C 32.660156 39.941406 32.40625 39.867188 32.164062 39.792969 C 30.0625 39.160156 28.414062 38.65625 28.414062 38.65625 C 28.378906 38.644531 28.355469 38.605469 28.367188 38.566406 C 28.378906 38.53125 28.417969 38.507812 28.457031 38.519531 C 28.457031 38.519531 30.113281 39 32.21875 39.617188 C 32.484375 39.695312 32.765625 39.777344 33.042969 39.859375 C 33.097656 39.792969 33.152344 39.726562 33.203125 39.660156 C 33.3125 39.527344 33.421875 39.394531 33.53125 39.261719 C 33.605469 39.171875 33.679688 39.085938 33.753906 39 C 33.5 38.925781 33.242188 38.847656 32.996094 38.773438 C 32.925781 38.753906 32.855469 38.730469 32.785156 38.710938 C 32.628906 38.859375 32.472656 38.996094 32.378906 39.101562 C 32.351562 39.132812 32.308594 39.136719 32.277344 39.109375 C 32.246094 39.082031 32.242188 39.039062 32.265625 39.007812 C 32.339844 38.910156 32.457031 38.785156 32.582031 38.648438 C 31.996094 38.472656 31.449219 38.304688 30.980469 38.164062 C 30.957031 38.1875 30.9375 38.210938 30.914062 38.234375 C 30.890625 38.265625 30.84375 38.269531 30.8125 38.242188 C 30.785156 38.21875 30.78125 38.171875 30.804688 38.140625 C 30.8125 38.132812 30.816406 38.125 30.824219 38.117188 C 29.867188 37.824219 29.25 37.636719 29.25 37.636719 C 29.210938 37.625 29.1875 37.585938 29.203125 37.546875 C 29.210938 37.511719 29.253906 37.488281 29.289062 37.5 C 29.289062 37.5 29.933594 37.6875 30.929688 37.976562 C 31 37.882812 31.070312 37.792969 31.140625 37.699219 C 31.167969 37.660156 31.203125 37.625 31.230469 37.585938 C 31.28125 37.53125 31.328125 37.476562 31.375 37.421875 C 31.398438 37.398438 31.421875 37.359375 31.453125 37.320312 C 30.089844 36.925781 29.164062 36.65625 29.164062 36.65625 C 29.125 36.644531 29.105469 36.605469 29.113281 36.570312 C 29.125 36.53125 29.164062 36.507812 29.203125 36.519531 C 29.203125 36.519531 30.160156 36.785156 31.558594 37.175781 C 31.582031 37.144531 31.609375 37.109375 31.621094 37.101562 C 31.65625 37.078125 31.683594 37.082031 31.703125 37.089844 C 31.722656 37.101562 31.757812 37.121094 31.75 37.183594 C 31.75 37.203125 31.726562 37.207031 31.714844 37.21875 C 32.214844 37.355469 32.765625 37.511719 33.351562 37.675781 C 33.742188 37.785156 34.152344 37.898438 34.5625 38.015625 C 34.5625 38.015625 34.566406 38.011719 34.566406 38.011719 C 34.578125 38.011719 34.59375 38.015625 34.613281 38.027344 C 35.105469 38.167969 35.609375 38.308594 36.113281 38.453125 C 37.058594 38.722656 38.003906 38.992188 38.875 39.242188 C 39.9375 39.550781 40.882812 39.824219 41.609375 40.035156 C 41.628906 40.019531 41.640625 40.007812 41.640625 40.007812 C 41.664062 39.984375 41.707031 39.984375 41.734375 40.011719 C 41.75 40.027344 41.738281 40.050781 41.730469 40.070312 C 42.429688 40.273438 42.871094 40.40625 42.96875 40.433594 C 43.019531 40.390625 43.09375 40.324219 43.132812 40.289062 C 43.136719 40.28125 43.140625 40.277344 43.144531 40.273438 L 43.148438 40.273438 C 43.148438 40.273438 43.144531 40.273438 43.144531 40.277344 L 43.148438 40.273438 C 43.148438 40.273438 43.152344 40.269531 43.152344 40.269531 C 43.550781 39.929688 43.507812 40.113281 43.238281 40.371094 C 43.207031 40.402344 43.085938 40.515625 43.039062 40.558594 L 42.621094 40.96875 C 42.421875 41.152344 42.226562 41.339844 42.03125 41.523438 C 41.832031 41.707031 41.632812 41.886719 41.433594 42.070312 C 41.125 42.34375 40.820312 42.628906 40.511719 42.90625 C 40.433594 42.980469 40.351562 43.050781 40.273438 43.125 C 40.304688 43.132812 40.332031 43.140625 40.332031 43.140625 C 40.367188 43.152344 40.386719 43.191406 40.378906 43.226562 C 40.367188 43.261719 40.332031 43.28125 40.292969 43.269531 C 40.292969 43.269531 40.238281 43.253906 40.152344 43.230469 C 39.8125 43.539062 39.46875 43.851562 39.117188 44.15625 C 38.707031 44.511719 38.28125 44.847656 37.855469 45.179688 C 37.886719 45.1875 37.914062 45.199219 37.914062 45.199219 C 37.949219 45.207031 37.96875 45.246094 37.960938 45.28125 C 37.949219 45.316406 37.910156 45.335938 37.875 45.324219 C 37.875 45.324219 37.816406 45.308594 37.726562 45.28125 C 37.648438 45.34375 37.578125 45.410156 37.496094 45.46875 C 37.46875 45.492188 37.421875 45.484375 37.398438 45.453125 C 37.375 45.421875 37.382812 45.378906 37.410156 45.355469 C 37.460938 45.316406 37.507812 45.273438 37.558594 45.234375 C 36.980469 45.066406 35.671875 44.6875 34.113281 44.234375 C 33.320312 44 32.464844 43.75 31.609375 43.496094 C 30.753906 43.242188 29.898438 42.984375 29.109375 42.746094 C 27.007812 42.109375 25.359375 41.605469 25.359375 41.605469 Z M 30.75 27.535156 C 30.695312 27.519531 30.644531 27.511719 30.589844 27.492188 C 30.550781 27.484375 30.515625 27.472656 30.476562 27.460938 C 30.441406 27.449219 30.40625 27.433594 30.367188 27.417969 C 30.335938 27.40625 30.273438 27.359375 30.253906 27.351562 C 30.21875 27.339844 30.195312 27.347656 30.183594 27.355469 C 30.171875 27.367188 30.15625 27.378906 30.15625 27.402344 C 30.15625 27.410156 30.148438 27.429688 30.164062 27.453125 C 30.175781 27.46875 30.191406 27.480469 30.210938 27.484375 C 30.234375 27.511719 30.273438 27.546875 30.296875 27.558594 C 30.335938 27.582031 30.371094 27.605469 30.410156 27.621094 C 30.449219 27.644531 30.492188 27.660156 30.53125 27.675781 C 30.589844 27.695312 30.648438 27.714844 30.710938 27.730469 C 30.769531 27.746094 30.832031 27.757812 30.890625 27.765625 C 31.015625 27.78125 31.136719 27.785156 31.257812 27.785156 C 31.300781 27.789062 31.332031 27.757812 31.335938 27.71875 C 31.339844 27.679688 31.308594 27.644531 31.269531 27.644531 C 31.175781 27.632812 31.085938 27.613281 30.992188 27.59375 C 30.910156 27.578125 30.832031 27.554688 30.75 27.535156 Z M 27.585938 23.9375 C 27.585938 23.9375 27.589844 23.9375 27.589844 23.9375 C 27.59375 23.9375 27.597656 23.9375 27.601562 23.941406 C 27.59375 23.933594 27.589844 23.929688 27.585938 23.9375 Z M 27.511719 24.046875 C 27.488281 24.027344 27.480469 24.003906 27.484375 23.984375 C 27.484375 23.96875 27.492188 23.941406 27.527344 23.921875 C 27.558594 23.902344 27.597656 23.914062 27.617188 23.941406 C 27.664062 23.945312 27.730469 23.949219 27.761719 23.949219 C 27.824219 23.957031 27.882812 23.957031 27.945312 23.960938 C 28.007812 23.960938 28.070312 23.960938 28.132812 23.957031 C 28.324219 23.953125 28.511719 23.945312 28.703125 23.9375 C 28.890625 23.925781 29.082031 23.910156 29.269531 23.890625 C 29.539062 23.863281 29.808594 23.832031 30.074219 23.804688 C 30.332031 23.78125 30.585938 23.761719 30.839844 23.738281 C 30.871094 23.695312 30.90625 23.660156 30.945312 23.660156 C 30.980469 23.660156 31.011719 23.6875 31.042969 23.71875 C 31.121094 23.714844 31.207031 23.703125 31.285156 23.699219 C 31.734375 23.667969 32.183594 23.652344 32.644531 23.65625 C 32.683594 23.65625 32.714844 23.691406 32.714844 23.730469 C 32.714844 23.769531 32.683594 23.800781 32.644531 23.800781 C 32.304688 23.808594 31.96875 23.824219 31.636719 23.851562 C 31.464844 23.867188 31.289062 23.886719 31.117188 23.902344 C 31.125 23.9375 31.128906 23.972656 31.128906 24.011719 C 31.128906 24.207031 31.046875 24.363281 30.945312 24.363281 C 30.847656 24.363281 30.765625 24.207031 30.765625 24.011719 C 30.765625 23.984375 30.769531 23.960938 30.773438 23.9375 C 30.671875 23.945312 30.566406 23.953125 30.464844 23.964844 C 30.308594 23.984375 30.152344 24 29.992188 24.015625 C 29.761719 24.039062 29.523438 24.058594 29.285156 24.078125 C 29.09375 24.09375 28.902344 24.105469 28.710938 24.109375 C 28.515625 24.117188 28.324219 24.117188 28.132812 24.113281 C 28.066406 24.113281 28.003906 24.113281 27.941406 24.109375 C 27.875 24.105469 27.8125 24.101562 27.746094 24.09375 C 27.707031 24.085938 27.628906 24.082031 27.582031 24.074219 C 27.546875 24.066406 27.523438 24.054688 27.511719 24.046875 Z M 29.542969 17.210938 L 30.0625 1.585938 C 31.023438 1.660156 40.269531 2.363281 49.519531 3.0625 C 58.71875 3.761719 67.921875 4.457031 68.964844 4.535156 L 67.257812 31.070312 L 32.46875 25.734375 C 32.429688 25.726562 32.394531 25.753906 32.390625 25.792969 C 32.382812 25.832031 32.410156 25.867188 32.449219 25.875 L 67.328125 31.269531 C 67.355469 31.273438 67.378906 31.265625 67.402344 31.25 C 67.421875 31.230469 67.433594 31.207031 67.433594 31.183594 L 69.167969 4.449219 C 69.171875 4.394531 69.132812 4.347656 69.078125 4.34375 C 69.078125 4.34375 59.304688 3.609375 49.535156 2.878906 C 39.761719 2.148438 29.988281 1.421875 29.988281 1.421875 C 29.96875 1.421875 29.949219 1.429688 29.933594 1.441406 C 29.914062 1.457031 29.90625 1.476562 29.90625 1.5 L 29.410156 17.207031 C 29.40625 17.242188 29.4375 17.273438 29.472656 17.277344 C 29.511719 17.277344 29.539062 17.246094 29.542969 17.210938 Z M 78.382812 45.921875 C 78.363281 45.886719 78.316406 45.878906 78.285156 45.902344 C 78.285156 45.902344 70.496094 51.328125 63.757812 56.03125 C 58.886719 59.433594 54.5625 62.453125 54.117188 62.765625 C 53.605469 62.628906 48.785156 61.351562 43.355469 59.917969 C 35.835938 57.929688 27.148438 55.640625 27.148438 55.640625 C 27.113281 55.628906 27.078125 55.652344 27.066406 55.6875 C 27.058594 55.722656 27.078125 55.757812 27.113281 55.769531 C 27.113281 55.769531 35.792969 58.089844 43.308594 60.09375 C 49.046875 61.625 54.109375 62.972656 54.109375 62.972656 C 54.140625 62.976562 54.167969 62.972656 54.191406 62.957031 C 54.191406 62.957031 58.726562 59.785156 63.867188 56.1875 C 70.597656 51.472656 78.367188 46.019531 78.367188 46.019531 C 78.398438 45.996094 78.40625 45.953125 78.382812 45.921875 Z M 3.175781 47.332031 C 2.90625 47.238281 2.613281 47.132812 2.320312 47.03125 C 2.027344 46.929688 1.734375 46.832031 1.460938 46.742188 C 0.738281 46.503906 0.167969 46.324219 0.167969 46.324219 C 0.132812 46.3125 0.0976562 46.328125 0.0859375 46.363281 C 0.0703125 46.398438 0.0898438 46.4375 0.125 46.449219 C 0.125 46.449219 0.6875 46.65625 1.402344 46.917969 C 1.671875 47.015625 1.964844 47.117188 2.257812 47.21875 C 2.550781 47.320312 2.84375 47.417969 3.117188 47.507812 C 3.839844 47.75 4.40625 47.933594 4.40625 47.933594 C 4.445312 47.945312 4.484375 47.925781 4.5 47.890625 C 4.511719 47.851562 4.492188 47.808594 4.457031 47.796875 C 4.457031 47.796875 3.894531 47.589844 3.175781 47.332031 Z M 12.894531 45.769531 C 14.527344 45.972656 16.128906 46.230469 17.566406 46.492188 C 19.535156 46.855469 21.195312 47.222656 22.195312 47.460938 C 22.644531 47.566406 22.957031 47.648438 23.109375 47.6875 C 23.128906 47.695312 23.152344 47.699219 23.167969 47.703125 C 23.386719 48.089844 23.550781 48.515625 23.675781 48.957031 C 23.804688 49.410156 23.890625 49.875 23.941406 50.328125 C 24.105469 51.742188 24.039062 53.175781 23.867188 54.605469 C 23.613281 56.753906 23.121094 58.898438 22.796875 60.980469 C 22.789062 61.019531 22.816406 61.054688 22.855469 61.0625 C 22.894531 61.066406 22.929688 61.042969 22.9375 61.003906 C 23.273438 58.921875 23.777344 56.773438 24.039062 54.628906 C 24.21875 53.179688 24.289062 51.734375 24.132812 50.304688 C 24.078125 49.84375 23.992188 49.367188 23.863281 48.902344 C 23.730469 48.4375 23.554688 47.984375 23.320312 47.574219 C 23.316406 47.570312 23.304688 47.542969 23.261719 47.527344 C 23.242188 47.519531 23.210938 47.511719 23.160156 47.496094 C 23.011719 47.453125 22.691406 47.375 22.238281 47.265625 C 21.238281 47.027344 19.574219 46.660156 17.601562 46.304688 C 16.160156 46.046875 14.550781 45.789062 12.914062 45.597656 C 10.492188 45.308594 8.007812 45.152344 5.90625 45.296875 C 5.867188 45.300781 5.839844 45.328125 5.84375 45.367188 C 5.847656 45.402344 5.875 45.429688 5.914062 45.429688 C 8.007812 45.296875 10.484375 45.46875 12.894531 45.769531 Z M 20.3125 78.625 C 20.003906 78.664062 19.6875 78.675781 19.375 78.675781 C 19.058594 78.679688 18.742188 78.664062 18.429688 78.640625 C 18.25 78.628906 17.488281 78.589844 17.210938 78.523438 C 17.191406 78.519531 17.175781 78.515625 17.160156 78.511719 C 17.160156 78.5 17.152344 78.488281 17.148438 78.480469 C 17.121094 78.453125 17.082031 78.449219 17.054688 78.476562 C 17.03125 78.492188 17.023438 78.515625 17.019531 78.535156 C 17.019531 78.550781 17.023438 78.570312 17.035156 78.589844 C 17.050781 78.609375 17.097656 78.636719 17.171875 78.660156 C 17.457031 78.738281 18.230469 78.808594 18.414062 78.824219 C 18.679688 78.851562 18.945312 78.871094 19.214844 78.875 C 19.484375 78.882812 19.753906 78.871094 20.019531 78.847656 C 20.550781 78.792969 21.078125 78.671875 21.578125 78.449219 C 21.613281 78.433594 21.632812 78.390625 21.617188 78.355469 C 21.601562 78.320312 21.558594 78.300781 21.523438 78.316406 C 21.128906 78.476562 20.722656 78.570312 20.3125 78.625 Z M 24.664062 74.472656 C 23.117188 74.722656 21.5625 74.898438 20.023438 74.992188 C 18.953125 75.054688 17.894531 75.0625 16.851562 75.039062 C 16.890625 74.410156 16.925781 73.78125 16.957031 73.152344 C 16.976562 72.792969 16.992188 72.433594 17.007812 72.070312 C 17.019531 71.710938 17.03125 71.351562 17.042969 70.988281 C 17.050781 70.753906 17.058594 70.519531 17.0625 70.28125 C 17.066406 70.046875 17.070312 69.8125 17.074219 69.574219 L 17.070312 69.121094 C 17.070312 69.082031 17.046875 68.984375 17.035156 68.941406 C 17.046875 68.933594 17.054688 68.921875 17.058594 68.90625 C 17.070312 68.871094 17.050781 68.835938 17.015625 68.824219 C 16.984375 68.8125 16.960938 68.820312 16.945312 68.828125 C 16.917969 68.839844 16.898438 68.867188 16.894531 68.914062 C 16.894531 68.964844 16.929688 69.070312 16.929688 69.121094 L 16.917969 69.570312 C 16.914062 69.761719 16.90625 69.949219 16.894531 70.136719 C 16.882812 70.417969 16.867188 70.699219 16.855469 70.980469 C 16.835938 71.414062 16.816406 71.847656 16.796875 72.28125 C 16.78125 72.683594 16.769531 73.085938 16.757812 73.492188 C 16.738281 74.007812 16.722656 74.519531 16.699219 75.035156 C 16.253906 75.023438 15.800781 75.023438 15.359375 74.992188 C 14.339844 74.929688 13.316406 74.839844 12.296875 74.714844 C 11.988281 74.679688 11.683594 74.632812 11.375 74.585938 C 11.394531 74.375 11.414062 74.121094 11.433594 73.832031 C 11.621094 73.890625 12.351562 74.113281 13.214844 74.289062 C 13.457031 74.335938 13.710938 74.378906 13.960938 74.414062 C 14.128906 74.4375 14.296875 74.457031 14.464844 74.46875 C 14.839844 74.5 15.203125 74.503906 15.523438 74.46875 C 15.957031 74.425781 16.316406 74.3125 16.539062 74.109375 C 16.566406 74.082031 16.570312 74.035156 16.542969 74.007812 C 16.519531 73.976562 16.472656 73.976562 16.441406 74 C 16.148438 74.257812 15.609375 74.324219 14.996094 74.308594 C 14.765625 74.300781 14.523438 74.28125 14.277344 74.25 C 14.035156 74.226562 13.792969 74.191406 13.558594 74.152344 C 13.257812 74.105469 12.964844 74.050781 12.699219 73.992188 C 12.003906 73.851562 11.5 73.710938 11.445312 73.695312 C 11.460938 73.488281 11.476562 73.269531 11.496094 73.042969 C 11.511719 72.808594 11.53125 72.5625 11.546875 72.316406 C 11.59375 72.328125 11.660156 72.347656 11.742188 72.375 C 12.089844 72.492188 12.65625 72.71875 12.816406 72.75 C 13.15625 72.8125 13.523438 72.878906 13.898438 72.910156 C 14.261719 72.945312 14.636719 72.949219 15 72.917969 C 15.503906 72.871094 15.988281 72.75 16.414062 72.511719 C 16.445312 72.492188 16.460938 72.449219 16.441406 72.414062 C 16.421875 72.378906 16.378906 72.367188 16.34375 72.386719 C 15.933594 72.601562 15.464844 72.699219 14.984375 72.734375 C 14.632812 72.757812 14.269531 72.742188 13.914062 72.710938 C 13.546875 72.679688 13.183594 72.628906 12.847656 72.570312 C 12.691406 72.546875 12.132812 72.34375 11.785156 72.238281 C 11.6875 72.207031 11.613281 72.191406 11.554688 72.183594 C 11.5625 72.09375 11.570312 72.003906 11.574219 71.910156 C 11.601562 71.519531 11.621094 71.132812 11.640625 70.777344 C 11.648438 70.648438 11.65625 70.527344 11.660156 70.410156 C 11.671875 70.417969 11.671875 70.425781 11.683594 70.433594 C 11.746094 70.46875 11.835938 70.496094 11.9375 70.515625 C 12.246094 70.578125 12.675781 70.589844 12.769531 70.59375 C 13.089844 70.617188 13.410156 70.625 13.726562 70.621094 C 14.046875 70.617188 14.367188 70.597656 14.683594 70.566406 C 15.316406 70.5 15.945312 70.390625 16.566406 70.242188 C 16.605469 70.234375 16.628906 70.195312 16.621094 70.15625 C 16.613281 70.121094 16.574219 70.09375 16.535156 70.105469 C 15.917969 70.230469 15.292969 70.320312 14.664062 70.371094 C 14.351562 70.398438 14.039062 70.414062 13.722656 70.425781 C 13.410156 70.433594 13.09375 70.433594 12.78125 70.421875 C 12.699219 70.417969 12.363281 70.421875 12.078125 70.386719 C 11.960938 70.375 11.851562 70.355469 11.773438 70.324219 C 11.738281 70.308594 11.710938 70.300781 11.703125 70.277344 C 11.699219 70.261719 11.679688 70.269531 11.667969 70.261719 C 11.703125 69.5625 11.726562 69.074219 11.726562 69.074219 C 11.726562 69.039062 11.699219 69.007812 11.664062 69.003906 C 11.628906 69 11.59375 69.03125 11.59375 69.066406 C 11.59375 69.066406 11.53125 69.800781 11.457031 70.765625 C 11.429688 71.121094 11.402344 71.507812 11.375 71.898438 C 11.351562 72.277344 11.332031 72.664062 11.308594 73.03125 C 11.277344 73.628906 11.25 74.171875 11.230469 74.566406 C 10.570312 74.472656 9.914062 74.363281 9.265625 74.234375 C 8.914062 74.164062 8.5625 74.082031 8.214844 73.996094 C 7.867188 73.90625 7.523438 73.808594 7.183594 73.695312 C 7.082031 73.660156 6.976562 73.625 6.878906 73.582031 C 6.777344 73.542969 6.679688 73.5 6.582031 73.453125 C 6.511719 73.421875 6.359375 73.304688 6.3125 73.28125 C 6.292969 73.269531 6.277344 73.265625 6.273438 73.265625 C 6.25 73.265625 6.238281 73.269531 6.226562 73.277344 C 6.210938 73.289062 6.203125 73.304688 6.199219 73.324219 C 6.199219 73.332031 6.199219 73.359375 6.230469 73.394531 C 6.246094 73.40625 6.261719 73.414062 6.277344 73.414062 C 6.34375 73.460938 6.460938 73.546875 6.523438 73.578125 C 6.621094 73.625 6.722656 73.671875 6.828125 73.710938 C 6.929688 73.753906 7.03125 73.789062 7.140625 73.828125 C 7.480469 73.945312 7.828125 74.046875 8.179688 74.136719 C 8.527344 74.230469 8.878906 74.3125 9.234375 74.386719 C 9.894531 74.523438 10.558594 74.632812 11.226562 74.734375 C 11.226562 74.773438 11.25 74.804688 11.289062 74.808594 C 11.320312 74.808594 11.335938 74.78125 11.347656 74.753906 C 11.65625 74.800781 11.964844 74.847656 12.277344 74.886719 C 13.296875 75.019531 14.324219 75.113281 15.347656 75.179688 C 15.789062 75.210938 16.242188 75.214844 16.695312 75.226562 C 16.691406 75.253906 16.691406 75.28125 16.691406 75.308594 C 16.6875 75.347656 16.71875 75.378906 16.757812 75.382812 C 16.796875 75.386719 16.832031 75.355469 16.835938 75.316406 C 16.835938 75.289062 16.835938 75.257812 16.839844 75.230469 C 17.890625 75.257812 18.957031 75.253906 20.035156 75.191406 C 21.582031 75.097656 23.144531 74.917969 24.695312 74.660156 C 27.835938 74.136719 30.929688 73.296875 33.734375 72.222656 C 33.773438 72.207031 33.792969 72.167969 33.777344 72.132812 C 33.761719 72.09375 33.722656 72.074219 33.683594 72.089844 C 30.882812 73.144531 27.796875 73.964844 24.664062 74.472656 Z M 15.351562 68.070312 C 14.996094 68.082031 14.628906 68.066406 14.269531 68.039062 C 13.792969 68 13.332031 67.941406 12.921875 67.855469 C 12.351562 67.738281 11.890625 67.589844 11.664062 67.421875 C 11.632812 67.402344 11.59375 67.40625 11.570312 67.4375 C 11.546875 67.464844 11.554688 67.507812 11.582031 67.527344 C 11.816406 67.710938 12.289062 67.894531 12.886719 68.03125 C 13.296875 68.125 13.769531 68.199219 14.253906 68.238281 C 14.621094 68.269531 14.996094 68.273438 15.359375 68.257812 C 15.972656 68.230469 16.550781 68.132812 16.996094 67.945312 C 17.03125 67.933594 17.050781 67.890625 17.035156 67.851562 C 17.019531 67.816406 16.976562 67.800781 16.941406 67.8125 C 16.507812 67.980469 15.945312 68.058594 15.351562 68.070312 Z M 16.964844 65 C 16.535156 65.203125 15.984375 65.320312 15.402344 65.367188 C 15.046875 65.398438 14.683594 65.398438 14.320312 65.375 C 13.855469 65.347656 13.398438 65.277344 12.992188 65.160156 C 12.507812 65.023438 12.089844 64.824219 11.820312 64.558594 C 11.792969 64.53125 11.753906 64.53125 11.726562 64.558594 C 11.699219 64.582031 11.699219 64.625 11.726562 64.652344 C 12.050781 64.992188 12.585938 65.25 13.210938 65.40625 C 13.554688 65.492188 13.929688 65.550781 14.308594 65.574219 C 14.679688 65.597656 15.054688 65.589844 15.417969 65.554688 C 16.023438 65.492188 16.589844 65.347656 17.027344 65.128906 C 17.0625 65.113281 17.078125 65.070312 17.0625 65.035156 C 17.042969 64.996094 17 64.984375 16.964844 65 Z M 17.179688 63.050781 C 17.175781 63.011719 17.140625 62.980469 17.101562 62.984375 C 16.710938 63.015625 15.984375 63.164062 15.207031 63.234375 C 14.957031 63.253906 14.703125 63.269531 14.453125 63.265625 C 14.285156 63.265625 14.117188 63.257812 13.953125 63.242188 C 13.660156 63.210938 13.382812 63.148438 13.132812 63.070312 C 12.648438 62.917969 12.265625 62.714844 12.09375 62.609375 L 12 62.546875 C 11.996094 62.542969 11.992188 62.539062 11.984375 62.535156 C 11.957031 62.515625 11.914062 62.523438 11.894531 62.554688 C 11.890625 62.5625 11.867188 62.609375 11.914062 62.648438 C 11.921875 62.65625 11.945312 62.675781 11.980469 62.699219 C 12.09375 62.777344 12.339844 62.929688 12.671875 63.074219 C 13.015625 63.230469 13.457031 63.375 13.933594 63.433594 C 14.101562 63.453125 14.277344 63.464844 14.453125 63.46875 C 14.710938 63.46875 14.96875 63.453125 15.226562 63.425781 C 16.003906 63.34375 16.726562 63.167969 17.113281 63.128906 C 17.152344 63.125 17.183594 63.089844 17.179688 63.050781 Z M 17.371094 61.328125 C 17.367188 61.289062 17.332031 61.261719 17.292969 61.265625 C 16.808594 61.3125 16.097656 61.324219 15.320312 61.285156 C 15.0625 61.269531 14.796875 61.253906 14.53125 61.230469 C 14.355469 61.214844 14.183594 61.199219 14.007812 61.179688 C 13.714844 61.148438 13.421875 61.105469 13.140625 61.058594 C 12.671875 60.976562 12.238281 60.871094 11.871094 60.734375 C 11.839844 60.722656 11.800781 60.738281 11.785156 60.773438 C 11.773438 60.808594 11.789062 60.847656 11.824219 60.859375 C 12.277344 61.046875 12.839844 61.191406 13.433594 61.292969 C 13.792969 61.351562 14.167969 61.398438 14.535156 61.429688 C 14.914062 61.464844 15.289062 61.480469 15.644531 61.484375 C 16.300781 61.492188 16.890625 61.460938 17.308594 61.40625 C 17.347656 61.402344 17.378906 61.367188 17.371094 61.328125 Z M 63.484375 19.265625 C 63.5 19.28125 63.515625 19.285156 63.515625 19.261719 C 63.515625 19.257812 63.507812 19.261719 63.503906 19.261719 C 63.496094 19.265625 63.488281 19.265625 63.484375 19.265625 Z M 62.914062 19.210938 C 62.894531 19.203125 62.875 19.1875 62.871094 19.164062 C 62.863281 19.128906 62.886719 19.09375 62.921875 19.085938 C 62.929688 19.082031 62.960938 19.082031 63.007812 19.109375 C 63.058594 19.136719 63.164062 19.207031 63.277344 19.289062 C 63.28125 19.292969 63.285156 19.296875 63.292969 19.300781 C 63.3125 19.28125 63.335938 19.261719 63.355469 19.246094 C 63.375 19.230469 63.394531 19.21875 63.414062 19.207031 C 63.410156 19.179688 63.425781 19.148438 63.457031 19.136719 C 63.496094 19.113281 63.523438 19.121094 63.539062 19.125 C 63.5625 19.128906 63.570312 19.144531 63.585938 19.160156 C 63.597656 19.175781 63.597656 19.207031 63.578125 19.253906 C 63.566406 19.285156 63.523438 19.339844 63.46875 19.402344 C 63.460938 19.410156 63.449219 19.421875 63.441406 19.429688 C 63.546875 19.535156 63.636719 19.628906 63.664062 19.65625 C 63.695312 19.683594 63.699219 19.730469 63.671875 19.757812 C 63.644531 19.789062 63.601562 19.792969 63.570312 19.765625 C 63.542969 19.746094 63.457031 19.683594 63.355469 19.609375 C 63.335938 19.59375 63.3125 19.574219 63.292969 19.558594 C 63.25 19.589844 63.207031 19.621094 63.179688 19.644531 C 63.15625 19.675781 63.109375 19.679688 63.078125 19.652344 C 63.046875 19.628906 63.042969 19.582031 63.070312 19.554688 C 63.089844 19.523438 63.121094 19.484375 63.15625 19.441406 C 63.132812 19.421875 63.109375 19.398438 63.089844 19.378906 C 63.039062 19.332031 62.996094 19.289062 62.964844 19.257812 C 62.949219 19.246094 62.9375 19.230469 62.929688 19.21875 C 62.9375 19.21875 62.945312 19.214844 62.949219 19.214844 C 62.941406 19.21875 62.933594 19.21875 62.921875 19.214844 L 62.929688 19.21875 C 62.917969 19.222656 62.90625 19.222656 62.914062 19.214844 Z M 56.570312 27.6875 L 63.636719 28.488281 C 63.660156 27.949219 63.78125 25.207031 63.863281 22.800781 C 63.898438 21.816406 63.929688 20.894531 63.941406 20.199219 C 63.898438 20.207031 63.835938 20.214844 63.753906 20.21875 C 63.429688 20.222656 62.867188 20.160156 62.804688 20.15625 C 62.320312 20.136719 61.839844 20.117188 61.355469 20.101562 C 61.03125 20.089844 60.710938 20.078125 60.386719 20.066406 C 59.851562 20.042969 59.316406 20.019531 58.777344 19.996094 L 57.464844 19.941406 L 57.007812 19.917969 C 56.996094 19.917969 56.886719 19.914062 56.84375 19.917969 C 56.828125 19.925781 56.808594 19.917969 56.792969 19.910156 C 56.742188 21.710938 56.644531 25.207031 56.597656 26.855469 C 56.585938 27.242188 56.578125 27.527344 56.570312 27.664062 Z M 56.820312 18.863281 C 56.816406 19.011719 56.808594 19.347656 56.796875 19.796875 C 56.804688 19.792969 56.8125 19.789062 56.832031 19.785156 C 56.878906 19.78125 57 19.78125 57.015625 19.78125 L 57.46875 19.789062 L 58.785156 19.816406 C 59.1875 19.828125 59.589844 19.839844 59.992188 19.851562 C 60.261719 19.859375 60.53125 19.871094 60.796875 19.882812 C 61.472656 19.910156 62.140625 19.949219 62.8125 19.988281 C 62.863281 19.992188 63.214844 20.039062 63.523438 20.058594 C 63.667969 20.070312 63.804688 20.074219 63.886719 20.0625 C 63.902344 20.0625 63.921875 20.054688 63.929688 20.054688 C 63.933594 20.050781 63.941406 20.054688 63.945312 20.050781 C 63.949219 19.765625 63.953125 19.519531 63.949219 19.335938 C 63.949219 19.191406 63.945312 19.082031 63.9375 19.023438 L 63.933594 19.023438 C 63.902344 19.011719 63.855469 19.003906 63.796875 18.996094 C 63.445312 18.941406 62.710938 18.910156 61.84375 18.890625 C 59.910156 18.84375 57.324219 18.859375 56.820312 18.863281 Z M 56.492188 27.820312 L 56.507812 27.800781 C 56.476562 27.800781 56.445312 27.785156 56.441406 27.78125 L 56.4375 27.78125 C 56.425781 27.761719 56.425781 27.742188 56.4375 27.722656 C 56.4375 27.707031 56.4375 27.6875 56.4375 27.660156 C 56.441406 27.523438 56.449219 27.238281 56.460938 26.851562 C 56.515625 24.578125 56.644531 18.773438 56.644531 18.773438 C 56.644531 18.726562 56.683594 18.6875 56.734375 18.683594 C 56.734375 18.683594 59.695312 18.648438 61.847656 18.691406 C 62.726562 18.710938 63.472656 18.746094 63.828125 18.796875 C 63.964844 18.816406 64.050781 18.847656 64.085938 18.875 C 64.097656 18.882812 64.117188 18.90625 64.128906 18.945312 C 64.136719 18.976562 64.140625 19.042969 64.144531 19.140625 C 64.15625 19.441406 64.148438 20.074219 64.125 20.882812 C 64.042969 23.691406 63.808594 28.589844 63.808594 28.589844 C 63.804688 28.613281 63.792969 28.636719 63.777344 28.652344 C 63.757812 28.667969 63.734375 28.675781 63.710938 28.671875 Z M 33.84375 13.421875 C 33.972656 13.386719 34.105469 13.324219 34.238281 13.265625 C 34.363281 13.210938 34.488281 13.164062 34.609375 13.160156 C 35.300781 13.144531 35.996094 13.148438 36.695312 13.167969 C 37.390625 13.1875 38.085938 13.222656 38.777344 13.269531 C 40.613281 13.386719 42.421875 13.570312 44.230469 13.75 C 46.046875 13.929688 47.863281 14.105469 49.691406 14.222656 C 51.242188 14.324219 52.808594 14.378906 54.386719 14.347656 C 54.429688 14.347656 54.460938 14.316406 54.460938 14.277344 C 54.460938 14.234375 54.425781 14.203125 54.386719 14.203125 C 52.808594 14.222656 51.25 14.15625 49.703125 14.046875 C 47.878906 13.921875 46.066406 13.730469 44.25 13.550781 C 42.441406 13.371094 40.625 13.199219 38.785156 13.089844 C 38.09375 13.050781 37.398438 13.019531 36.699219 13.007812 C 36 12.992188 35.300781 12.992188 34.605469 13.015625 C 34.46875 13.019531 34.324219 13.074219 34.183594 13.136719 C 34.058594 13.191406 33.929688 13.257812 33.8125 13.289062 C 33.707031 13.3125 33.609375 13.316406 33.519531 13.261719 C 33.488281 13.242188 33.449219 13.25 33.429688 13.28125 C 33.410156 13.3125 33.417969 13.351562 33.449219 13.371094 C 33.570312 13.449219 33.703125 13.453125 33.84375 13.421875 Z M 32.574219 5.492188 C 33.273438 5.324219 33.996094 5.207031 34.71875 5.1875 C 35.4375 5.164062 36.15625 5.234375 36.855469 5.433594 C 38.152344 5.800781 39.226562 6.488281 40.25 7.222656 C 41.324219 7.984375 42.34375 8.796875 43.515625 9.351562 C 44.472656 9.800781 45.53125 10.082031 46.792969 10.027344 C 48.078125 9.96875 49.464844 9.519531 50.894531 8.972656 C 52.851562 8.21875 54.890625 7.28125 56.863281 6.925781 C 58.371094 6.652344 59.84375 6.71875 61.207031 7.484375 C 61.242188 7.503906 61.285156 7.488281 61.304688 7.457031 C 61.324219 7.421875 61.3125 7.378906 61.277344 7.359375 C 59.882812 6.570312 58.378906 6.492188 56.835938 6.761719 C 54.851562 7.113281 52.796875 8.046875 50.828125 8.792969 C 49.417969 9.328125 48.050781 9.773438 46.785156 9.828125 C 45.558594 9.882812 44.53125 9.609375 43.601562 9.171875 C 42.4375 8.625 41.425781 7.824219 40.359375 7.070312 C 39.3125 6.328125 38.222656 5.636719 36.902344 5.269531 C 36.1875 5.070312 35.449219 5 34.710938 5.027344 C 33.980469 5.054688 33.246094 5.175781 32.539062 5.351562 C 32.292969 5.414062 32.054688 5.480469 31.816406 5.5625 C 31.578125 5.640625 31.34375 5.734375 31.113281 5.839844 C 30.988281 5.898438 30.742188 6.082031 30.617188 6.164062 C 30.597656 6.160156 30.570312 6.164062 30.550781 6.183594 C 30.511719 6.230469 30.511719 6.261719 30.511719 6.269531 C 30.511719 6.304688 30.53125 6.328125 30.574219 6.332031 C 30.582031 6.332031 30.605469 6.332031 30.636719 6.3125 C 30.726562 6.261719 31.03125 6.027344 31.171875 5.964844 C 31.394531 5.863281 31.625 5.773438 31.859375 5.695312 C 32.09375 5.617188 32.332031 5.554688 32.574219 5.492188 Z M 30.226562 22.988281 C 30.226562 22.984375 30.230469 22.984375 30.230469 22.980469 C 30.230469 22.980469 30.230469 22.984375 30.226562 22.988281 C 30.242188 22.988281 30.269531 22.996094 30.289062 22.996094 C 30.347656 23 30.40625 23.007812 30.425781 23.011719 C 30.472656 23.011719 30.523438 23.019531 30.570312 23.027344 C 30.621094 23.035156 30.667969 23.042969 30.71875 23.054688 C 30.78125 23.066406 30.847656 23.082031 30.910156 23.101562 C 31.015625 23.132812 31.117188 23.175781 31.210938 23.230469 C 31.242188 23.253906 31.285156 23.246094 31.308594 23.214844 C 31.332031 23.183594 31.324219 23.136719 31.292969 23.113281 C 31.171875 23.019531 31.035156 22.941406 30.882812 22.894531 C 30.824219 22.871094 30.765625 22.859375 30.703125 22.847656 C 30.609375 22.832031 30.515625 22.832031 30.421875 22.835938 C 30.398438 22.839844 30.28125 22.839844 30.214844 22.855469 C 30.167969 22.863281 30.136719 22.882812 30.125 22.902344 C 30.101562 22.933594 30.109375 22.972656 30.140625 22.996094 C 30.164062 23.011719 30.195312 23.011719 30.21875 22.992188 L 30.21875 22.996094 C 30.222656 23 30.226562 22.992188 30.226562 22.988281 Z M 31.703125 25.722656 C 31.703125 25.71875 31.695312 25.714844 31.691406 25.710938 C 31.691406 25.707031 31.6875 25.707031 31.6875 25.707031 C 31.6875 25.707031 31.683594 25.710938 31.683594 25.707031 C 31.691406 25.710938 31.699219 25.71875 31.703125 25.722656 Z M 31.8125 25.566406 C 31.839844 25.558594 31.863281 25.558594 31.882812 25.554688 C 31.914062 25.53125 31.960938 25.542969 31.980469 25.578125 C 32 25.609375 31.988281 25.65625 31.957031 25.675781 C 31.933594 25.695312 31.898438 25.71875 31.859375 25.742188 C 31.84375 25.753906 31.820312 25.761719 31.800781 25.769531 C 31.785156 25.777344 31.765625 25.78125 31.75 25.785156 C 31.738281 25.789062 31.730469 25.789062 31.71875 25.792969 C 31.71875 25.792969 31.71875 25.796875 31.71875 25.796875 C 31.703125 25.828125 31.664062 25.84375 31.628906 25.828125 C 31.578125 25.820312 31.570312 25.78125 31.5625 25.757812 C 31.554688 25.730469 31.574219 25.691406 31.621094 25.648438 C 31.636719 25.632812 31.660156 25.617188 31.6875 25.605469 C 31.703125 25.597656 31.714844 25.589844 31.730469 25.585938 C 31.757812 25.574219 31.785156 25.570312 31.8125 25.566406 Z M 29.320312 29.554688 C 29.246094 29.539062 29.171875 29.523438 29.097656 29.507812 C 29.046875 29.496094 28.996094 29.484375 28.945312 29.472656 C 28.914062 29.464844 28.882812 29.457031 28.851562 29.445312 C 28.839844 29.4375 28.808594 29.40625 28.792969 29.398438 C 28.773438 29.386719 28.757812 29.382812 28.742188 29.382812 C 28.714844 29.386719 28.683594 29.394531 28.675781 29.4375 C 28.664062 29.472656 28.683594 29.511719 28.71875 29.523438 C 28.71875 29.523438 28.722656 29.523438 28.722656 29.523438 C 28.730469 29.53125 28.738281 29.546875 28.746094 29.550781 C 28.761719 29.566406 28.777344 29.578125 28.789062 29.585938 C 28.832031 29.605469 28.875 29.625 28.917969 29.640625 C 28.960938 29.660156 29.007812 29.671875 29.050781 29.6875 C 29.109375 29.707031 29.167969 29.722656 29.230469 29.738281 C 29.273438 29.75 29.3125 29.757812 29.355469 29.765625 C 29.511719 29.792969 29.667969 29.808594 29.824219 29.824219 C 29.863281 29.828125 29.898438 29.804688 29.90625 29.765625 C 29.910156 29.726562 29.882812 29.6875 29.84375 29.683594 C 29.738281 29.660156 29.636719 29.632812 29.53125 29.605469 C 29.460938 29.589844 29.390625 29.570312 29.320312 29.554688 Z M 25.6875 24.183594 C 25.6875 24.179688 25.691406 24.128906 25.75 24.121094 C 25.761719 24.121094 25.769531 24.121094 25.78125 24.125 C 25.832031 24.121094 25.945312 24.121094 25.988281 24.128906 C 26.078125 24.152344 26.164062 24.179688 26.246094 24.21875 C 26.328125 24.253906 26.410156 24.292969 26.488281 24.335938 C 26.601562 24.398438 26.71875 24.476562 26.824219 24.566406 C 26.929688 24.652344 27.027344 24.75 27.113281 24.851562 C 27.292969 25.066406 27.433594 25.308594 27.519531 25.554688 C 27.53125 25.59375 27.515625 25.636719 27.476562 25.648438 C 27.441406 25.664062 27.398438 25.644531 27.386719 25.605469 C 27.289062 25.382812 27.144531 25.167969 26.972656 24.980469 C 26.90625 24.90625 26.832031 24.84375 26.761719 24.78125 C 26.765625 24.792969 26.769531 24.804688 26.773438 24.816406 C 26.789062 24.859375 26.800781 24.902344 26.8125 24.945312 C 26.824219 24.988281 26.835938 25.03125 26.847656 25.078125 C 26.855469 25.121094 26.863281 25.167969 26.871094 25.210938 C 26.890625 25.347656 26.90625 25.484375 26.921875 25.617188 C 26.929688 25.65625 26.90625 25.695312 26.867188 25.703125 C 26.828125 25.710938 26.789062 25.683594 26.78125 25.644531 C 26.75 25.515625 26.710938 25.382812 26.679688 25.25 C 26.667969 25.207031 26.660156 25.160156 26.648438 25.117188 L 26.582031 24.734375 C 26.582031 24.730469 26.582031 24.6875 26.570312 24.660156 C 26.570312 24.648438 26.5625 24.644531 26.558594 24.644531 L 26.554688 24.644531 C 26.550781 24.636719 26.558594 24.625 26.554688 24.613281 C 26.5 24.574219 26.449219 24.53125 26.394531 24.496094 C 26.308594 24.445312 26.222656 24.394531 26.128906 24.351562 C 26.070312 24.320312 26.011719 24.296875 25.949219 24.277344 C 25.910156 24.265625 25.800781 24.261719 25.761719 24.257812 C 25.695312 24.253906 25.683594 24.191406 25.6875 24.183594" fill="#141211" fill-rule="evenodd"/></g></g></svg>